<svg width="842" height="595" viewBox="0 0 842 595" fill="none" xmlns="http://www.w3.org/2000/svg">
<g clip-path="url(#clip0_16_261)">
<rect width="595" height="842" transform="matrix(0 1 -1 0 842 0)" fill="#F0EBE5"/>
<path d="M112.5 314C118.3 314 123.333 315 127.6 317C131.933 319 135.233 321.9 137.5 325.7C139.833 329.433 141 333.867 141 339C141 344.133 139.833 348.6 137.5 352.4C135.233 356.133 131.933 359 127.6 361C123.333 363 118.3 364 112.5 364H98V384H84.7V314H112.5ZM111.8 352.5C116.867 352.5 120.733 351.333 123.4 349C126.133 346.6 127.5 343.267 127.5 339C127.5 334.733 126.133 331.433 123.4 329.1C120.733 326.7 116.867 325.5 111.8 325.5H98V352.5H111.8ZM171.621 384.7C166.354 384.7 161.621 383.533 157.421 381.2C153.221 378.867 149.921 375.6 147.521 371.4C145.187 367.2 144.021 362.467 144.021 357.2C144.021 351.933 145.187 347.233 147.521 343.1C149.921 338.9 153.221 335.633 157.421 333.3C161.621 330.967 166.354 329.8 171.621 329.8C176.821 329.8 181.487 330.967 185.621 333.3C189.821 335.633 193.087 338.9 195.421 343.1C197.754 347.233 198.921 351.933 198.921 357.2C198.921 362.467 197.754 367.2 195.421 371.4C193.087 375.6 189.821 378.867 185.621 381.2C181.487 383.533 176.821 384.7 171.621 384.7ZM171.621 373.5C175.754 373.5 179.154 372.033 181.821 369.1C184.554 366.1 185.921 362.133 185.921 357.2C185.921 352.267 184.554 348.333 181.821 345.4C179.154 342.467 175.754 341 171.621 341C167.421 341 163.954 342.467 161.221 345.4C158.487 348.333 157.121 352.267 157.121 357.2C157.121 362.133 158.487 366.1 161.221 369.1C163.954 372.033 167.421 373.5 171.621 373.5ZM220.111 338.5C221.777 335.633 224.111 333.467 227.111 332C230.177 330.533 233.777 329.8 237.911 329.8V342.3C237.177 342.233 236.211 342.2 235.011 342.2C230.544 342.2 227.044 343.567 224.511 346.3C221.977 348.967 220.711 352.933 220.711 358.2V384H207.711V330.5H220.111V338.5ZM281.386 381.3C279.986 382.433 278.253 383.3 276.186 383.9C274.119 384.433 271.953 384.7 269.686 384.7C263.953 384.7 259.519 383.133 256.386 380C253.253 376.867 251.686 372.333 251.686 366.4V342H243.586V331.5H251.686V318.7H264.586V331.5H277.886V342H264.586V366.2C264.586 368.667 265.186 370.567 266.386 371.9C267.586 373.233 269.286 373.9 271.486 373.9C273.886 373.9 275.986 373.167 277.786 371.7L281.386 381.3ZM310.07 319.8C305.27 319.8 302.87 322.567 302.87 328.1V331.5H316.47V342H303.17V384H290.27V342H282.17V331.5H290.27V328C290.27 322.2 291.903 317.6 295.17 314.2C298.437 310.8 303.003 309.1 308.87 309.1C311.07 309.1 313.137 309.367 315.07 309.9C317.003 310.367 318.603 311.1 319.87 312.1L316.37 321.9C314.57 320.5 312.47 319.8 310.07 319.8ZM345.468 384.7C340.202 384.7 335.468 383.533 331.268 381.2C327.068 378.867 323.768 375.6 321.368 371.4C319.035 367.2 317.868 362.467 317.868 357.2C317.868 351.933 319.035 347.233 321.368 343.1C323.768 338.9 327.068 335.633 331.268 333.3C335.468 330.967 340.202 329.8 345.468 329.8C350.668 329.8 355.335 330.967 359.468 333.3C363.668 335.633 366.935 338.9 369.268 343.1C371.602 347.233 372.768 351.933 372.768 357.2C372.768 362.467 371.602 367.2 369.268 371.4C366.935 375.6 363.668 378.867 359.468 381.2C355.335 383.533 350.668 384.7 345.468 384.7ZM345.468 373.5C349.602 373.5 353.002 372.033 355.668 369.1C358.402 366.1 359.768 362.133 359.768 357.2C359.768 352.267 358.402 348.333 355.668 345.4C353.002 342.467 349.602 341 345.468 341C341.268 341 337.802 342.467 335.068 345.4C332.335 348.333 330.968 352.267 330.968 357.2C330.968 362.133 332.335 366.1 335.068 369.1C337.802 372.033 341.268 373.5 345.468 373.5ZM394.558 309.8V384H381.558V309.8H394.558ZM413.986 322C411.586 322 409.619 321.267 408.086 319.8C406.553 318.267 405.786 316.4 405.786 314.2C405.786 312 406.553 310.167 408.086 308.7C409.619 307.167 411.586 306.4 413.986 306.4C416.386 306.4 418.353 307.133 419.886 308.6C421.419 310 422.186 311.767 422.186 313.9C422.186 316.233 421.419 318.167 419.886 319.7C418.419 321.233 416.453 322 413.986 322ZM420.486 330.5V384H407.486V330.5H420.486ZM456.914 384.7C451.647 384.7 446.914 383.533 442.714 381.2C438.514 378.867 435.214 375.6 432.814 371.4C430.48 367.2 429.314 362.467 429.314 357.2C429.314 351.933 430.48 347.233 432.814 343.1C435.214 338.9 438.514 335.633 442.714 333.3C446.914 330.967 451.647 329.8 456.914 329.8C462.114 329.8 466.78 330.967 470.914 333.3C475.114 335.633 478.38 338.9 480.714 343.1C483.047 347.233 484.214 351.933 484.214 357.2C484.214 362.467 483.047 367.2 480.714 371.4C478.38 375.6 475.114 378.867 470.914 381.2C466.78 383.533 462.114 384.7 456.914 384.7ZM456.914 373.5C461.047 373.5 464.447 372.033 467.114 369.1C469.847 366.1 471.214 362.133 471.214 357.2C471.214 352.267 469.847 348.333 467.114 345.4C464.447 342.467 461.047 341 456.914 341C452.714 341 449.247 342.467 446.514 345.4C443.78 348.333 442.414 352.267 442.414 357.2C442.414 362.133 443.78 366.1 446.514 369.1C449.247 372.033 452.714 373.5 456.914 373.5Z" fill="#FCB600"/>
<path opacity="0.8" d="M104.2 458.2C111.467 458.2 117.033 460.067 120.9 463.8C124.767 467.467 126.7 472.967 126.7 480.3V512H116.4V504.1C115 506.833 112.867 508.933 110 510.4C107.2 511.867 103.833 512.6 99.9 512.6C94.1667 512.6 89.6333 511.167 86.3 508.3C82.9667 505.367 81.3 501.567 81.3 496.9C81.3 492.167 82.9667 488.4 86.3 485.6C89.6333 482.8 94.8333 481.4 101.9 481.4H115.7C115.7 479.2 115.433 477.4 114.9 476C113.767 470.267 109.767 467.4 102.9 467.4C99.9 467.4 97 467.9 94.2 468.9C91.4667 469.9 89.1 471.3 87.1 473.1L83 465C85.6667 462.867 88.8667 461.2 92.6 460C96.4 458.8 100.267 458.2 104.2 458.2ZM102.5 504.7C105.7 504.7 108.433 503.933 110.7 502.4C112.967 500.867 114.633 498.633 115.7 495.7V488.4H103C95.6667 488.4 92 491.067 92 496.4C92 498.933 92.9333 500.967 94.8 502.5C96.6667 503.967 99.2333 504.7 102.5 504.7ZM166.35 458.2C172.683 458.2 177.716 460.167 181.45 464.1C185.25 467.967 187.15 473.7 187.15 481.3V512H176.25V483C176.25 478.067 175.15 474.367 172.95 471.9C170.816 469.433 167.716 468.2 163.65 468.2C159.116 468.2 155.516 469.667 152.85 472.6C150.183 475.467 148.85 479.567 148.85 484.9V512H137.85V458.8H148.35V467.3C150.216 464.367 152.683 462.133 155.75 460.6C158.883 459 162.416 458.2 166.35 458.2ZM217.667 458.2C224.933 458.2 230.5 460.067 234.367 463.8C238.233 467.467 240.167 472.967 240.167 480.3V512H229.867V504.1C228.467 506.833 226.333 508.933 223.467 510.4C220.667 511.867 217.3 512.6 213.367 512.6C207.633 512.6 203.1 511.167 199.767 508.3C196.433 505.367 194.767 501.567 194.767 496.9C194.767 492.167 196.433 488.4 199.767 485.6C203.1 482.8 208.3 481.4 215.367 481.4H229.167C229.167 479.2 228.9 477.4 228.367 476C227.233 470.267 223.233 467.4 216.367 467.4C213.367 467.4 210.467 467.9 207.667 468.9C204.933 469.9 202.567 471.3 200.567 473.1L196.467 465C199.133 462.867 202.333 461.2 206.067 460C209.867 458.8 213.733 458.2 217.667 458.2ZM215.967 504.7C219.167 504.7 221.9 503.933 224.167 502.4C226.433 500.867 228.1 498.633 229.167 495.7V488.4H216.467C209.133 488.4 205.467 491.067 205.467 496.4C205.467 498.933 206.4 500.967 208.267 502.5C210.133 503.967 212.7 504.7 215.967 504.7ZM262.816 437.8V512H251.816V437.8H262.816ZM301.575 516.8C299.375 522.4 296.741 526.333 293.675 528.6C290.608 530.867 286.908 532 282.575 532C280.041 532 277.608 531.567 275.275 530.7C272.941 529.9 271.008 528.733 269.475 527.2L273.675 519C274.808 520.2 276.108 521.1 277.575 521.7C279.108 522.367 280.675 522.7 282.275 522.7C284.741 522.7 286.708 521.933 288.175 520.4C289.641 518.867 291.208 516.133 292.875 512.2L270.575 458.8H281.975L298.475 499.2L314.975 458.8H325.575L301.575 516.8ZM370.082 512H326.782V505L355.482 467.8H327.482V458.8H369.382V465.9L340.682 503H370.082V512ZM384.858 449.3C382.724 449.3 380.958 448.667 379.558 447.4C378.224 446.067 377.558 444.4 377.558 442.4C377.558 440.467 378.224 438.833 379.558 437.5C380.958 436.167 382.724 435.5 384.858 435.5C386.924 435.5 388.624 436.133 389.958 437.4C391.291 438.667 391.958 440.267 391.958 442.2C391.958 444.267 391.291 445.967 389.958 447.3C388.624 448.633 386.924 449.3 384.858 449.3ZM390.258 458.8V512H379.258V458.8H390.258ZM432.395 458.2C438.728 458.2 443.761 460.167 447.495 464.1C451.295 467.967 453.195 473.7 453.195 481.3V512H442.295V483C442.295 478.067 441.195 474.367 438.995 471.9C436.861 469.433 433.761 468.2 429.695 468.2C425.161 468.2 421.561 469.667 418.895 472.6C416.228 475.467 414.895 479.567 414.895 484.9V512H403.895V458.8H414.395V467.3C416.261 464.367 418.728 462.133 421.795 460.6C424.928 459 428.461 458.2 432.395 458.2ZM516.233 504.3C516.233 522.767 507.267 532 489.333 532C484.533 532 480 531.333 475.733 530C471.467 528.667 467.967 526.767 465.233 524.3L469.833 516C472.1 518.067 474.9 519.7 478.233 520.9C481.567 522.1 485 522.7 488.533 522.7C494.267 522.7 498.467 521.3 501.133 518.5C503.867 515.767 505.233 511.533 505.233 505.8V500.6C503.367 503.467 500.867 505.7 497.733 507.3C494.667 508.9 491.233 509.7 487.433 509.7C482.7 509.7 478.4 508.633 474.533 506.5C470.733 504.3 467.7 501.233 465.433 497.3C463.233 493.367 462.133 488.9 462.133 483.9C462.133 478.9 463.233 474.467 465.433 470.6C467.7 466.667 470.733 463.633 474.533 461.5C478.4 459.3 482.7 458.2 487.433 458.2C491.433 458.2 495.033 459.033 498.233 460.7C501.433 462.367 503.967 464.767 505.833 467.9V458.8H516.233V504.3ZM489.333 500.1C494 500.1 497.833 498.6 500.833 495.6C503.9 492.6 505.433 488.7 505.433 483.9C505.433 479.1 503.9 475.2 500.833 472.2C497.833 469.2 494 467.7 489.333 467.7C484.733 467.7 480.9 469.2 477.833 472.2C474.833 475.2 473.333 479.1 473.333 483.9C473.333 488.633 474.833 492.533 477.833 495.6C480.9 498.6 484.733 500.1 489.333 500.1Z" fill="#CACACA"/>
<path opacity="0.8" d="M113.4 202.2C118.067 202.2 122.267 203.333 126 205.6C129.8 207.867 132.8 211.067 135 215.2C137.2 219.333 138.3 224.067 138.3 229.4C138.3 234.733 137.2 239.467 135 243.6C132.8 247.733 129.8 250.933 126 253.2C122.267 255.467 118.067 256.6 113.4 256.6C109.667 256.6 106.3 255.833 103.3 254.3C100.367 252.767 97.9333 250.533 96 247.6V275.4H85V202.8H95.5V211.7C97.3667 208.633 99.8333 206.3 102.9 204.7C105.967 203.033 109.467 202.2 113.4 202.2ZM111.6 247.1C114.533 247.1 117.2 246.367 119.6 244.9C122 243.433 123.867 241.367 125.2 238.7C126.6 236.033 127.3 232.933 127.3 229.4C127.3 225.867 126.6 222.767 125.2 220.1C123.867 217.433 122 215.367 119.6 213.9C117.2 212.433 114.533 211.7 111.6 211.7C108.6 211.7 105.9 212.433 103.5 213.9C101.167 215.367 99.3 217.433 97.9 220.1C96.5667 222.767 95.9 225.867 95.9 229.4C95.9 232.933 96.5667 236.033 97.9 238.7C99.3 241.367 101.167 243.433 103.5 244.9C105.9 246.367 108.6 247.1 111.6 247.1ZM159.018 181.8V256H148.018V181.8H159.018ZM192.354 202.2C199.621 202.2 205.188 204.067 209.054 207.8C212.921 211.467 214.854 216.967 214.854 224.3V256H204.554V248.1C203.154 250.833 201.021 252.933 198.154 254.4C195.354 255.867 191.988 256.6 188.054 256.6C182.321 256.6 177.788 255.167 174.454 252.3C171.121 249.367 169.454 245.567 169.454 240.9C169.454 236.167 171.121 232.4 174.454 229.6C177.788 226.8 182.988 225.4 190.054 225.4H203.854C203.854 223.2 203.588 221.4 203.054 220C201.921 214.267 197.921 211.4 191.054 211.4C188.054 211.4 185.154 211.9 182.354 212.9C179.621 213.9 177.254 215.3 175.254 217.1L171.154 209C173.821 206.867 177.021 205.2 180.754 204C184.554 202.8 188.421 202.2 192.354 202.2ZM190.654 248.7C193.854 248.7 196.588 247.933 198.854 246.4C201.121 244.867 202.788 242.633 203.854 239.7V232.4H191.154C183.821 232.4 180.154 235.067 180.154 240.4C180.154 242.933 181.088 244.967 182.954 246.5C184.821 247.967 187.388 248.7 190.654 248.7ZM254.504 202.2C260.837 202.2 265.871 204.167 269.604 208.1C273.404 211.967 275.304 217.7 275.304 225.3V256H264.404V227C264.404 222.067 263.304 218.367 261.104 215.9C258.971 213.433 255.871 212.2 251.804 212.2C247.271 212.2 243.671 213.667 241.004 216.6C238.337 219.467 237.004 223.567 237.004 228.9V256H226.004V202.8H236.504V211.3C238.371 208.367 240.837 206.133 243.904 204.6C247.037 203 250.571 202.2 254.504 202.2ZM316.643 202.2C322.976 202.2 328.009 204.167 331.743 208.1C335.543 211.967 337.443 217.7 337.443 225.3V256H326.543V227C326.543 222.067 325.443 218.367 323.243 215.9C321.109 213.433 318.009 212.2 313.943 212.2C309.409 212.2 305.809 213.667 303.143 216.6C300.476 219.467 299.143 223.567 299.143 228.9V256H288.143V202.8H298.643V211.3C300.509 208.367 302.976 206.133 306.043 204.6C309.176 203 312.709 202.2 316.643 202.2ZM356.381 193.3C354.248 193.3 352.481 192.667 351.081 191.4C349.748 190.067 349.081 188.4 349.081 186.4C349.081 184.467 349.748 182.833 351.081 181.5C352.481 180.167 354.248 179.5 356.381 179.5C358.448 179.5 360.148 180.133 361.481 181.4C362.815 182.667 363.481 184.267 363.481 186.2C363.481 188.267 362.815 189.967 361.481 191.3C360.148 192.633 358.448 193.3 356.381 193.3ZM361.781 202.8V256H350.781V202.8H361.781ZM403.918 202.2C410.251 202.2 415.285 204.167 419.018 208.1C422.818 211.967 424.718 217.7 424.718 225.3V256H413.818V227C413.818 222.067 412.718 218.367 410.518 215.9C408.385 213.433 405.285 212.2 401.218 212.2C396.685 212.2 393.085 213.667 390.418 216.6C387.751 219.467 386.418 223.567 386.418 228.9V256H375.418V202.8H385.918V211.3C387.785 208.367 390.251 206.133 393.318 204.6C396.451 203 399.985 202.2 403.918 202.2ZM487.757 248.3C487.757 266.767 478.79 276 460.857 276C456.057 276 451.523 275.333 447.257 274C442.99 272.667 439.49 270.767 436.757 268.3L441.357 260C443.623 262.067 446.423 263.7 449.757 264.9C453.09 266.1 456.523 266.7 460.057 266.7C465.79 266.7 469.99 265.3 472.657 262.5C475.39 259.767 476.757 255.533 476.757 249.8V244.6C474.89 247.467 472.39 249.7 469.257 251.3C466.19 252.9 462.757 253.7 458.957 253.7C454.223 253.7 449.923 252.633 446.057 250.5C442.257 248.3 439.223 245.233 436.957 241.3C434.757 237.367 433.657 232.9 433.657 227.9C433.657 222.9 434.757 218.467 436.957 214.6C439.223 210.667 442.257 207.633 446.057 205.5C449.923 203.3 454.223 202.2 458.957 202.2C462.957 202.2 466.557 203.033 469.757 204.7C472.957 206.367 475.49 208.767 477.357 211.9V202.8H487.757V248.3ZM460.857 244.1C465.523 244.1 469.357 242.6 472.357 239.6C475.423 236.6 476.957 232.7 476.957 227.9C476.957 223.1 475.423 219.2 472.357 216.2C469.357 213.2 465.523 211.7 460.857 211.7C456.257 211.7 452.423 213.2 449.357 216.2C446.357 219.2 444.857 223.1 444.857 227.9C444.857 232.633 446.357 236.533 449.357 239.6C452.423 242.6 456.257 244.1 460.857 244.1Z" fill="#CACACA"/>
<path opacity="0.8" d="M147.2 79L124.4 119.8H119.2L96.5 79.6V128H85.8V58H95.2L122 105.7L148.5 58H157.8L157.9 128H147.3L147.2 79ZM191.915 74.2C199.182 74.2 204.748 76.0667 208.615 79.8C212.482 83.4667 214.415 88.9667 214.415 96.3V128H204.115V120.1C202.715 122.833 200.582 124.933 197.715 126.4C194.915 127.867 191.548 128.6 187.615 128.6C181.882 128.6 177.348 127.167 174.015 124.3C170.682 121.367 169.015 117.567 169.015 112.9C169.015 108.167 170.682 104.4 174.015 101.6C177.348 98.8 182.548 97.4 189.615 97.4H203.415C203.415 95.2 203.148 93.4 202.615 92C201.482 86.2667 197.482 83.4 190.615 83.4C187.615 83.4 184.715 83.9 181.915 84.9C179.182 85.9 176.815 87.3 174.815 89.1L170.715 81C173.382 78.8667 176.582 77.2 180.315 76C184.115 74.8 187.982 74.2 191.915 74.2ZM190.215 120.7C193.415 120.7 196.148 119.933 198.415 118.4C200.682 116.867 202.348 114.633 203.415 111.7V104.4H190.715C183.382 104.4 179.715 107.067 179.715 112.4C179.715 114.933 180.648 116.967 182.515 118.5C184.382 119.967 186.948 120.7 190.215 120.7ZM238.586 83.7C240.319 80.5667 242.719 78.2 245.786 76.6C248.853 75 252.519 74.2 256.786 74.2V84.9C255.453 84.7667 254.586 84.7 254.186 84.7C249.519 84.7 245.819 86.2 243.086 89.2C240.419 92.1333 239.086 96.3667 239.086 101.9V128H228.086V74.8H238.586V83.7ZM276.703 113.6V128H265.703V53.8H276.703V99.9L302.303 74.8H315.503L294.103 97L317.503 128H304.103L286.103 104.2L276.703 113.6ZM368.777 101.4C368.711 102.4 368.644 103.433 368.577 104.5H328.477C329.011 109.033 330.811 112.633 333.877 115.3C336.944 117.967 340.811 119.3 345.477 119.3C351.211 119.3 355.877 117.3 359.477 113.3L365.377 120C360.644 125.733 353.911 128.6 345.177 128.6C339.711 128.6 334.877 127.433 330.677 125.1C326.477 122.767 323.211 119.533 320.877 115.4C318.544 111.267 317.377 106.6 317.377 101.4C317.377 96.2 318.511 91.5333 320.777 87.4C323.044 83.2667 326.144 80.0333 330.077 77.7C334.011 75.3667 338.444 74.2 343.377 74.2C348.111 74.2 352.411 75.3333 356.277 77.6C360.144 79.8 363.177 82.9667 365.377 87.1C367.644 91.2333 368.777 96 368.777 101.4ZM343.377 83C339.311 83 335.877 84.3333 333.077 87C330.344 89.6667 328.777 93.1667 328.377 97.5H358.477C358.011 93.1667 356.377 89.6667 353.577 87C350.844 84.3333 347.444 83 343.377 83ZM408.179 125.2C406.846 126.333 405.146 127.2 403.079 127.8C401.079 128.333 398.979 128.6 396.779 128.6C391.379 128.6 387.212 127.133 384.279 124.2C381.346 121.2 379.879 116.9 379.879 111.3V84.6H371.579V75.6H379.879V63.1H390.879V75.6H404.779V84.6H390.879V111C390.879 113.667 391.512 115.733 392.779 117.2C394.112 118.667 395.946 119.4 398.279 119.4C400.946 119.4 403.179 118.6 404.979 117L408.179 125.2ZM421.86 65.3C419.726 65.3 417.96 64.6667 416.56 63.4C415.226 62.0667 414.56 60.4 414.56 58.4C414.56 56.4667 415.226 54.8333 416.56 53.5C417.96 52.1667 419.726 51.5 421.86 51.5C423.926 51.5 425.626 52.1333 426.96 53.4C428.293 54.6667 428.96 56.2667 428.96 58.2C428.96 60.2667 428.293 61.9667 426.96 63.3C425.626 64.6333 423.926 65.3 421.86 65.3ZM427.26 74.8V128H416.26V74.8H427.26ZM469.396 74.2C475.73 74.2 480.763 76.1667 484.496 80.1C488.296 83.9667 490.196 89.7 490.196 97.3V128H479.296V99C479.296 94.0667 478.196 90.3667 475.996 87.9C473.863 85.4333 470.763 84.2 466.696 84.2C462.163 84.2 458.563 85.6667 455.896 88.6C453.23 91.4667 451.896 95.5667 451.896 100.9V128H440.896V74.8H451.396V83.3C453.263 80.3667 455.73 78.1333 458.796 76.6C461.93 75 465.463 74.2 469.396 74.2ZM553.235 120.3C553.235 138.767 544.268 148 526.335 148C521.535 148 517.002 147.333 512.735 146C508.468 144.667 504.968 142.767 502.235 140.3L506.835 132C509.102 134.067 511.902 135.7 515.235 136.9C518.568 138.1 522.002 138.7 525.535 138.7C531.268 138.7 535.468 137.3 538.135 134.5C540.868 131.767 542.235 127.533 542.235 121.8V116.6C540.368 119.467 537.868 121.7 534.735 123.3C531.668 124.9 528.235 125.7 524.435 125.7C519.702 125.7 515.402 124.633 511.535 122.5C507.735 120.3 504.702 117.233 502.435 113.3C500.235 109.367 499.135 104.9 499.135 99.9C499.135 94.9 500.235 90.4667 502.435 86.6C504.702 82.6667 507.735 79.6333 511.535 77.5C515.402 75.3 519.702 74.2 524.435 74.2C528.435 74.2 532.035 75.0333 535.235 76.7C538.435 78.3667 540.968 80.7667 542.835 83.9V74.8H553.235V120.3ZM526.335 116.1C531.002 116.1 534.835 114.6 537.835 111.6C540.902 108.6 542.435 104.7 542.435 99.9C542.435 95.1 540.902 91.2 537.835 88.2C534.835 85.2 531.002 83.7 526.335 83.7C521.735 83.7 517.902 85.2 514.835 88.2C511.835 91.2 510.335 95.1 510.335 99.9C510.335 104.633 511.835 108.533 514.835 111.6C517.902 114.6 521.735 116.1 526.335 116.1Z" fill="#D2D1D0"/>
<path d="M724.763 459.756V464.156H722.363V453.689H724.763V457.311H726.896V459.756H724.763ZM710.34 463.333V453.956H712.718V456.467H717.629V453.956H719.985V463.333H710.34ZM717.629 458.511H712.718V461.244H717.629V458.511ZM724.763 464.956V470.844H722.318V467.111H710.785V464.956H724.763ZM732.738 458.267C732.708 459.837 732.634 461.044 732.516 461.889L736.294 468.489L734.427 469.644L731.849 465.044C730.99 468.007 729.538 469.6 727.494 469.822V467.4C728.427 467.222 729.145 466.326 729.649 464.711C730.153 463.081 730.42 460.933 730.449 458.267H727.716V455.978H730.449V453.644H732.738V455.978H735.471V458.267H732.738ZM743.271 470.756H741.005V462.711H738.871V470.467H736.627V453.778H738.871V460.333H741.005V453.689H743.271V470.756ZM758.158 457.644H755.802L755.647 455.4H758.158V453.689H760.536V466.356H758.158V462.244H755.625L755.78 460H758.158V457.644ZM755.291 458.822C755.291 459.8 755.084 460.674 754.669 461.444C754.254 462.2 753.654 462.793 752.869 463.222C752.099 463.637 751.202 463.844 750.18 463.844C749.158 463.844 748.262 463.637 747.491 463.222C746.721 462.793 746.128 462.2 745.713 461.444C745.299 460.674 745.091 459.8 745.091 458.822C745.091 457.844 745.299 456.978 745.713 456.222C746.128 455.452 746.721 454.859 747.491 454.444C748.262 454.015 749.158 453.8 750.18 453.8C751.202 453.8 752.099 454.015 752.869 454.444C753.654 454.859 754.254 455.452 754.669 456.222C755.084 456.978 755.291 457.844 755.291 458.822ZM747.447 458.822C747.447 459.726 747.699 460.437 748.202 460.956C748.706 461.474 749.365 461.733 750.18 461.733C750.995 461.733 751.647 461.474 752.136 460.956C752.639 460.437 752.891 459.726 752.891 458.822C752.891 457.919 752.639 457.215 752.136 456.711C751.647 456.193 750.995 455.933 750.18 455.933C749.35 455.933 748.684 456.193 748.18 456.711C747.691 457.215 747.447 457.919 747.447 458.822ZM760.825 470.622H746.647V464.889H749.069V468.356H760.825V470.622ZM669.757 474.667C670.912 474.667 671.823 474.96 672.49 475.547C673.166 476.133 673.503 476.938 673.503 477.96C673.503 478.636 673.352 479.222 673.05 479.72C672.748 480.209 672.312 480.587 671.743 480.853C671.183 481.111 670.521 481.24 669.757 481.24H667.69V484H666.17V474.667H669.757ZM669.69 479.933C670.428 479.933 670.992 479.76 671.383 479.413C671.774 479.067 671.97 478.582 671.97 477.96C671.97 477.329 671.774 476.84 671.383 476.493C670.992 476.147 670.428 475.973 669.69 475.973H667.69V479.933H669.69ZM677.146 476.827C678.115 476.827 678.857 477.076 679.372 477.573C679.888 478.062 680.146 478.796 680.146 479.773V484H678.772V482.947C678.586 483.311 678.301 483.591 677.919 483.787C677.546 483.982 677.097 484.08 676.572 484.08C675.808 484.08 675.203 483.889 674.759 483.507C674.315 483.116 674.092 482.609 674.092 481.987C674.092 481.356 674.315 480.853 674.759 480.48C675.203 480.107 675.897 479.92 676.839 479.92H678.679C678.679 479.627 678.643 479.387 678.572 479.2C678.421 478.436 677.888 478.053 676.972 478.053C676.572 478.053 676.186 478.12 675.812 478.253C675.448 478.387 675.132 478.573 674.866 478.813L674.319 477.733C674.675 477.449 675.101 477.227 675.599 477.067C676.106 476.907 676.621 476.827 677.146 476.827ZM676.919 483.027C677.346 483.027 677.71 482.924 678.012 482.72C678.315 482.516 678.537 482.218 678.679 481.827V480.853H676.986C676.008 480.853 675.519 481.209 675.519 481.92C675.519 482.258 675.643 482.529 675.892 482.733C676.141 482.929 676.483 483.027 676.919 483.027ZM683.368 478.093C683.6 477.676 683.92 477.36 684.328 477.147C684.737 476.933 685.226 476.827 685.795 476.827V478.253C685.617 478.236 685.502 478.227 685.448 478.227C684.826 478.227 684.333 478.427 683.968 478.827C683.613 479.218 683.435 479.782 683.435 480.52V484H681.968V476.907H683.368V478.093ZM688.451 482.08V484H686.984V474.107H688.451V480.253L691.864 476.907H693.624L690.771 479.867L693.891 484H692.104L689.704 480.827L688.451 482.08ZM701.527 484.12C700.638 484.12 699.834 483.916 699.114 483.507C698.394 483.089 697.829 482.516 697.42 481.787C697.011 481.058 696.807 480.24 696.807 479.333C696.807 478.418 697.011 477.6 697.42 476.88C697.829 476.151 698.394 475.582 699.114 475.173C699.834 474.756 700.642 474.547 701.54 474.547C702.251 474.547 702.905 474.676 703.5 474.933C704.096 475.191 704.594 475.564 704.994 476.053L704.034 477.013C703.376 476.276 702.567 475.907 701.607 475.907C700.985 475.907 700.425 476.053 699.927 476.347C699.429 476.64 699.038 477.049 698.754 477.573C698.469 478.098 698.327 478.684 698.327 479.333C698.327 479.982 698.469 480.569 698.754 481.093C699.038 481.618 699.429 482.027 699.927 482.32C700.425 482.613 700.985 482.76 701.607 482.76C702.567 482.76 703.376 482.387 704.034 481.64L704.994 482.6C704.594 483.098 704.096 483.476 703.5 483.733C702.905 483.991 702.247 484.12 701.527 484.12ZM709.968 476.827C710.812 476.827 711.483 477.089 711.981 477.613C712.488 478.129 712.741 478.893 712.741 479.907V484H711.288V480.133C711.288 479.476 711.141 478.982 710.848 478.653C710.563 478.324 710.15 478.16 709.608 478.16C709.003 478.16 708.523 478.356 708.168 478.747C707.812 479.129 707.634 479.676 707.634 480.387V484H706.168V474.107H707.634V477.96C707.892 477.596 708.221 477.316 708.621 477.12C709.021 476.924 709.47 476.827 709.968 476.827ZM717.13 476.827C718.099 476.827 718.841 477.076 719.357 477.573C719.872 478.062 720.13 478.796 720.13 479.773V484H718.757V482.947C718.57 483.311 718.286 483.591 717.903 483.787C717.53 483.982 717.081 484.08 716.557 484.08C715.792 484.08 715.188 483.889 714.743 483.507C714.299 483.116 714.077 482.609 714.077 481.987C714.077 481.356 714.299 480.853 714.743 480.48C715.188 480.107 715.881 479.92 716.823 479.92H718.663C718.663 479.627 718.628 479.387 718.557 479.2C718.406 478.436 717.872 478.053 716.957 478.053C716.557 478.053 716.17 478.12 715.797 478.253C715.432 478.387 715.117 478.573 714.85 478.813L714.303 477.733C714.659 477.449 715.086 477.227 715.583 477.067C716.09 476.907 716.606 476.827 717.13 476.827ZM716.903 483.027C717.33 483.027 717.694 482.924 717.997 482.72C718.299 482.516 718.521 482.218 718.663 481.827V480.853H716.97C715.992 480.853 715.503 481.209 715.503 481.92C715.503 482.258 715.628 482.529 715.877 482.733C716.126 482.929 716.468 483.027 716.903 483.027ZM728.22 480.453C728.211 480.587 728.202 480.724 728.193 480.867H722.846C722.917 481.471 723.157 481.951 723.566 482.307C723.975 482.662 724.491 482.84 725.113 482.84C725.877 482.84 726.5 482.573 726.98 482.04L727.766 482.933C727.135 483.698 726.237 484.08 725.073 484.08C724.344 484.08 723.7 483.924 723.14 483.613C722.58 483.302 722.144 482.871 721.833 482.32C721.522 481.769 721.366 481.147 721.366 480.453C721.366 479.76 721.517 479.138 721.82 478.587C722.122 478.036 722.535 477.604 723.06 477.293C723.584 476.982 724.175 476.827 724.833 476.827C725.464 476.827 726.037 476.978 726.553 477.28C727.068 477.573 727.473 477.996 727.766 478.547C728.068 479.098 728.22 479.733 728.22 480.453ZM724.833 478C724.291 478 723.833 478.178 723.46 478.533C723.095 478.889 722.886 479.356 722.833 479.933H726.846C726.784 479.356 726.566 478.889 726.193 478.533C725.828 478.178 725.375 478 724.833 478ZM735.91 484H734.403V480.72L730.923 474.667H732.523L735.23 479.333L737.91 474.667H739.403L735.91 480.733V484ZM745.516 480.453C745.508 480.587 745.499 480.724 745.49 480.867H740.143C740.214 481.471 740.454 481.951 740.863 482.307C741.272 482.662 741.788 482.84 742.41 482.84C743.174 482.84 743.796 482.573 744.276 482.04L745.063 482.933C744.432 483.698 743.534 484.08 742.37 484.08C741.641 484.08 740.996 483.924 740.436 483.613C739.876 483.302 739.441 482.871 739.13 482.32C738.819 481.769 738.663 481.147 738.663 480.453C738.663 479.76 738.814 479.138 739.116 478.587C739.419 478.036 739.832 477.604 740.356 477.293C740.881 476.982 741.472 476.827 742.13 476.827C742.761 476.827 743.334 476.978 743.85 477.28C744.365 477.573 744.77 477.996 745.063 478.547C745.365 479.098 745.516 479.733 745.516 480.453ZM742.13 478C741.588 478 741.13 478.178 740.756 478.533C740.392 478.889 740.183 479.356 740.13 479.933H744.143C744.081 479.356 743.863 478.889 743.49 478.533C743.125 478.178 742.672 478 742.13 478ZM749.797 484.08C749.112 484.08 748.499 483.924 747.957 483.613C747.414 483.302 746.988 482.871 746.677 482.32C746.366 481.769 746.21 481.147 746.21 480.453C746.21 479.76 746.366 479.138 746.677 478.587C746.988 478.036 747.414 477.604 747.957 477.293C748.499 476.982 749.112 476.827 749.797 476.827C750.481 476.827 751.094 476.982 751.637 477.293C752.179 477.604 752.601 478.036 752.903 478.587C753.214 479.138 753.37 479.76 753.37 480.453C753.37 481.147 753.214 481.769 752.903 482.32C752.601 482.871 752.179 483.302 751.637 483.613C751.094 483.924 750.481 484.08 749.797 484.08ZM749.797 482.813C750.197 482.813 750.552 482.716 750.863 482.52C751.183 482.324 751.432 482.049 751.61 481.693C751.797 481.338 751.89 480.924 751.89 480.453C751.89 479.982 751.797 479.569 751.61 479.213C751.432 478.858 751.183 478.582 750.863 478.387C750.552 478.191 750.197 478.093 749.797 478.093C749.406 478.093 749.05 478.191 748.73 478.387C748.41 478.582 748.157 478.858 747.97 479.213C747.792 479.569 747.703 479.982 747.703 480.453C747.703 480.924 747.792 481.338 747.97 481.693C748.157 482.049 748.41 482.324 748.73 482.52C749.05 482.716 749.406 482.813 749.797 482.813ZM758.382 476.827C759.226 476.827 759.897 477.089 760.395 477.613C760.902 478.129 761.155 478.893 761.155 479.907V484H759.702V480.133C759.702 479.476 759.555 478.982 759.262 478.653C758.977 478.324 758.564 478.16 758.022 478.16C757.417 478.16 756.937 478.356 756.582 478.747C756.226 479.129 756.048 479.676 756.048 480.387V484H754.582V476.907H755.982V478.04C756.23 477.649 756.559 477.351 756.968 477.147C757.386 476.933 757.857 476.827 758.382 476.827Z" fill="black"/>
<path d="M659.818 511.64V514.107H659.191V511.64H656.671V511.04H659.191V508.56H659.818V511.04H662.351V511.64H659.818ZM668.796 511.12C669.454 511.28 669.965 511.56 670.33 511.96C670.694 512.36 670.876 512.853 670.876 513.44C670.876 514.249 670.556 514.889 669.916 515.36C669.285 515.831 668.419 516.067 667.316 516.067C666.214 516.067 665.348 515.836 664.716 515.373C664.085 514.902 663.77 514.258 663.77 513.44C663.77 512.853 663.948 512.36 664.303 511.96C664.659 511.56 665.17 511.28 665.836 511.12C665.285 510.96 664.859 510.698 664.556 510.333C664.254 509.969 664.103 509.529 664.103 509.013C664.103 508.267 664.392 507.68 664.97 507.253C665.556 506.818 666.339 506.6 667.316 506.6C668.294 506.6 669.076 506.818 669.663 507.253C670.25 507.689 670.543 508.276 670.543 509.013C670.543 509.529 670.392 509.969 670.09 510.333C669.788 510.698 669.356 510.96 668.796 511.12ZM667.316 507.187C666.552 507.187 665.948 507.351 665.503 507.68C665.059 508.009 664.836 508.458 664.836 509.027C664.836 509.587 665.054 510.031 665.49 510.36C665.925 510.68 666.534 510.84 667.316 510.84C668.09 510.84 668.699 510.68 669.143 510.36C669.588 510.031 669.81 509.587 669.81 509.027C669.81 508.458 669.583 508.009 669.13 507.68C668.685 507.351 668.081 507.187 667.316 507.187ZM667.316 515.467C668.196 515.467 668.885 515.284 669.383 514.92C669.89 514.556 670.143 514.062 670.143 513.44C670.143 512.818 669.89 512.324 669.383 511.96C668.885 511.596 668.196 511.413 667.316 511.413C666.436 511.413 665.748 511.596 665.25 511.96C664.761 512.324 664.516 512.818 664.516 513.44C664.516 514.062 664.761 514.556 665.25 514.92C665.748 515.284 666.436 515.467 667.316 515.467ZM678.547 516H672.107V515.493L676.04 511.573C676.556 511.067 676.903 510.631 677.08 510.267C677.267 509.893 677.36 509.516 677.36 509.133C677.36 508.547 677.156 508.084 676.747 507.747C676.347 507.409 675.774 507.24 675.027 507.24C673.871 507.24 672.987 507.604 672.374 508.333L671.854 507.92C672.209 507.493 672.658 507.169 673.2 506.947C673.751 506.716 674.378 506.6 675.08 506.6C675.996 506.6 676.725 506.822 677.267 507.267C677.809 507.702 678.08 508.307 678.08 509.08C678.08 509.56 677.974 510.018 677.76 510.453C677.556 510.889 677.16 511.396 676.574 511.973L673.174 515.36H678.547V516ZM686.721 516H686.001V507.293H683.734V506.667H686.721V516ZM693.965 516.067C693.254 516.067 692.618 515.876 692.058 515.493C691.507 515.102 691.076 514.551 690.765 513.84C690.454 513.12 690.298 512.284 690.298 511.333C690.298 510.373 690.454 509.538 690.765 508.827C691.076 508.116 691.507 507.569 692.058 507.187C692.618 506.796 693.254 506.6 693.965 506.6C694.685 506.6 695.32 506.796 695.872 507.187C696.423 507.569 696.854 508.116 697.165 508.827C697.476 509.538 697.632 510.373 697.632 511.333C697.632 512.284 697.476 513.12 697.165 513.84C696.854 514.551 696.423 515.102 695.872 515.493C695.32 515.876 694.685 516.067 693.965 516.067ZM693.965 515.427C694.552 515.427 695.063 515.267 695.498 514.947C695.943 514.618 696.285 514.147 696.525 513.533C696.774 512.911 696.898 512.178 696.898 511.333C696.898 510.489 696.774 509.76 696.525 509.147C696.285 508.524 695.943 508.053 695.498 507.733C695.063 507.404 694.552 507.24 693.965 507.24C693.387 507.24 692.876 507.404 692.432 507.733C691.996 508.053 691.654 508.524 691.405 509.147C691.165 509.76 691.045 510.489 691.045 511.333C691.045 512.178 691.165 512.911 691.405 513.533C691.654 514.147 691.996 514.618 692.432 514.947C692.876 515.267 693.387 515.427 693.965 515.427ZM701.582 506.6C702.8 506.6 703.729 507.009 704.369 507.827C705.018 508.644 705.342 509.796 705.342 511.28C705.342 512.311 705.169 513.187 704.822 513.907C704.475 514.618 703.991 515.156 703.369 515.52C702.747 515.884 702.018 516.067 701.182 516.067C700.275 516.067 699.56 515.902 699.035 515.573L699.342 515.013C699.778 515.289 700.382 515.427 701.155 515.427C702.222 515.427 703.058 515.08 703.662 514.387C704.275 513.693 704.582 512.676 704.582 511.333C704.582 510.907 704.551 510.538 704.489 510.227C704.32 510.84 703.969 511.32 703.435 511.667C702.911 512.013 702.289 512.187 701.569 512.187C700.955 512.187 700.413 512.076 699.942 511.853C699.471 511.622 699.102 511.298 698.835 510.88C698.578 510.462 698.449 509.978 698.449 509.427C698.449 508.867 698.582 508.373 698.849 507.947C699.124 507.511 699.498 507.178 699.969 506.947C700.449 506.716 700.987 506.6 701.582 506.6ZM701.675 511.6C702.173 511.6 702.613 511.502 702.995 511.307C703.387 511.111 703.689 510.844 703.902 510.507C704.124 510.16 704.235 509.782 704.235 509.373C704.235 509 704.133 508.649 703.929 508.32C703.724 507.982 703.422 507.711 703.022 507.507C702.631 507.302 702.155 507.2 701.595 507.2C700.875 507.2 700.293 507.4 699.849 507.8C699.404 508.2 699.182 508.733 699.182 509.4C699.182 510.067 699.404 510.6 699.849 511C700.302 511.4 700.911 511.6 701.675 511.6ZM710.373 510.48C710.986 510.48 711.528 510.596 711.999 510.827C712.47 511.049 712.835 511.369 713.093 511.787C713.359 512.204 713.493 512.689 713.493 513.24C713.493 513.8 713.355 514.298 713.079 514.733C712.813 515.16 712.444 515.489 711.973 515.72C711.502 515.951 710.968 516.067 710.373 516.067C709.155 516.067 708.222 515.658 707.573 514.84C706.924 514.013 706.599 512.862 706.599 511.387C706.599 510.356 706.773 509.484 707.119 508.773C707.466 508.053 707.95 507.511 708.573 507.147C709.204 506.782 709.937 506.6 710.773 506.6C711.67 506.6 712.382 506.764 712.906 507.093L712.613 507.653C712.168 507.369 711.559 507.227 710.786 507.227C709.746 507.227 708.919 507.56 708.306 508.227C707.702 508.893 707.386 509.858 707.359 511.12C707.359 511.609 707.39 512.04 707.453 512.413C707.63 511.809 707.982 511.338 708.506 511C709.039 510.653 709.662 510.48 710.373 510.48ZM710.346 515.467C711.066 515.467 711.648 515.267 712.093 514.867C712.546 514.458 712.773 513.924 712.773 513.267C712.773 512.6 712.546 512.067 712.093 511.667C711.648 511.267 711.039 511.067 710.266 511.067C709.768 511.067 709.324 511.164 708.933 511.36C708.55 511.556 708.253 511.822 708.039 512.16C707.826 512.498 707.719 512.876 707.719 513.293C707.719 513.667 707.822 514.022 708.026 514.36C708.23 514.689 708.528 514.956 708.919 515.16C709.319 515.364 709.795 515.467 710.346 515.467ZM720.203 513.427V516H719.483V513.427H714.177V512.92L719.217 506.667H720.03L715.097 512.8H719.497V510.533H720.203V512.8H722.15V513.427H720.203ZM725.98 516.067C725.269 516.067 724.634 515.876 724.074 515.493C723.523 515.102 723.092 514.551 722.78 513.84C722.469 513.12 722.314 512.284 722.314 511.333C722.314 510.373 722.469 509.538 722.78 508.827C723.092 508.116 723.523 507.569 724.074 507.187C724.634 506.796 725.269 506.6 725.98 506.6C726.7 506.6 727.336 506.796 727.887 507.187C728.438 507.569 728.869 508.116 729.18 508.827C729.492 509.538 729.647 510.373 729.647 511.333C729.647 512.284 729.492 513.12 729.18 513.84C728.869 514.551 728.438 515.102 727.887 515.493C727.336 515.876 726.7 516.067 725.98 516.067ZM725.98 515.427C726.567 515.427 727.078 515.267 727.514 514.947C727.958 514.618 728.3 514.147 728.54 513.533C728.789 512.911 728.914 512.178 728.914 511.333C728.914 510.489 728.789 509.76 728.54 509.147C728.3 508.524 727.958 508.053 727.514 507.733C727.078 507.404 726.567 507.24 725.98 507.24C725.403 507.24 724.892 507.404 724.447 507.733C724.012 508.053 723.669 508.524 723.42 509.147C723.18 509.76 723.06 510.489 723.06 511.333C723.06 512.178 723.18 512.911 723.42 513.533C723.669 514.147 724.012 514.618 724.447 514.947C724.892 515.267 725.403 515.427 725.98 515.427ZM733.984 516.067C733.273 516.067 732.638 515.876 732.078 515.493C731.527 515.102 731.095 514.551 730.784 513.84C730.473 513.12 730.318 512.284 730.318 511.333C730.318 510.373 730.473 509.538 730.784 508.827C731.095 508.116 731.527 507.569 732.078 507.187C732.638 506.796 733.273 506.6 733.984 506.6C734.704 506.6 735.34 506.796 735.891 507.187C736.442 507.569 736.873 508.116 737.184 508.827C737.495 509.538 737.651 510.373 737.651 511.333C737.651 512.284 737.495 513.12 737.184 513.84C736.873 514.551 736.442 515.102 735.891 515.493C735.34 515.876 734.704 516.067 733.984 516.067ZM733.984 515.427C734.571 515.427 735.082 515.267 735.518 514.947C735.962 514.618 736.304 514.147 736.544 513.533C736.793 512.911 736.918 512.178 736.918 511.333C736.918 510.489 736.793 509.76 736.544 509.147C736.304 508.524 735.962 508.053 735.518 507.733C735.082 507.404 734.571 507.24 733.984 507.24C733.407 507.24 732.895 507.404 732.451 507.733C732.015 508.053 731.673 508.524 731.424 509.147C731.184 509.76 731.064 510.489 731.064 511.333C731.064 512.178 731.184 512.911 731.424 513.533C731.673 514.147 732.015 514.618 732.451 514.947C732.895 515.267 733.407 515.427 733.984 515.427ZM745.215 516H738.775V515.493L742.708 511.573C743.224 511.067 743.571 510.631 743.748 510.267C743.935 509.893 744.028 509.516 744.028 509.133C744.028 508.547 743.824 508.084 743.415 507.747C743.015 507.409 742.442 507.24 741.695 507.24C740.539 507.24 739.655 507.604 739.042 508.333L738.522 507.92C738.877 507.493 739.326 507.169 739.868 506.947C740.419 506.716 741.046 506.6 741.748 506.6C742.664 506.6 743.393 506.822 743.935 507.267C744.477 507.702 744.748 508.307 744.748 509.08C744.748 509.56 744.642 510.018 744.428 510.453C744.224 510.889 743.828 511.396 743.242 511.973L739.842 515.36H745.215V516ZM753.286 507.16L749.286 516H748.486L752.446 507.307H747.246V509.093H746.566V506.667H753.286V507.16ZM758.396 510.48C759.009 510.48 759.552 510.596 760.023 510.827C760.494 511.049 760.858 511.369 761.116 511.787C761.383 512.204 761.516 512.689 761.516 513.24C761.516 513.8 761.378 514.298 761.103 514.733C760.836 515.16 760.467 515.489 759.996 515.72C759.525 515.951 758.992 516.067 758.396 516.067C757.178 516.067 756.245 515.658 755.596 514.84C754.947 514.013 754.623 512.862 754.623 511.387C754.623 510.356 754.796 509.484 755.143 508.773C755.489 508.053 755.974 507.511 756.596 507.147C757.227 506.782 757.961 506.6 758.796 506.6C759.694 506.6 760.405 506.764 760.929 507.093L760.636 507.653C760.192 507.369 759.583 507.227 758.809 507.227C757.769 507.227 756.943 507.56 756.329 508.227C755.725 508.893 755.409 509.858 755.383 511.12C755.383 511.609 755.414 512.04 755.476 512.413C755.654 511.809 756.005 511.338 756.529 511C757.063 510.653 757.685 510.48 758.396 510.48ZM758.369 515.467C759.089 515.467 759.672 515.267 760.116 514.867C760.569 514.458 760.796 513.924 760.796 513.267C760.796 512.6 760.569 512.067 760.116 511.667C759.672 511.267 759.063 511.067 758.289 511.067C757.792 511.067 757.347 511.164 756.956 511.36C756.574 511.556 756.276 511.822 756.063 512.16C755.849 512.498 755.743 512.876 755.743 513.293C755.743 513.667 755.845 514.022 756.049 514.36C756.254 514.689 756.552 514.956 756.943 515.16C757.343 515.364 757.818 515.467 758.369 515.467ZM628.13 532.587H627.45V528.333C627.201 528.867 626.837 529.289 626.357 529.6C625.886 529.902 625.352 530.053 624.757 530.053C624.143 530.053 623.588 529.907 623.09 529.613C622.601 529.311 622.215 528.893 621.93 528.36C621.646 527.818 621.503 527.204 621.503 526.52C621.503 525.836 621.646 525.227 621.93 524.693C622.215 524.151 622.601 523.729 623.09 523.427C623.588 523.124 624.143 522.973 624.757 522.973C625.37 522.973 625.912 523.129 626.383 523.44C626.863 523.751 627.228 524.187 627.477 524.747V523.04H628.13V532.587ZM624.823 529.427C625.321 529.427 625.77 529.307 626.17 529.067C626.57 528.818 626.886 528.476 627.117 528.04C627.348 527.596 627.463 527.089 627.463 526.52C627.463 525.951 627.348 525.444 627.117 525C626.886 524.556 626.57 524.213 626.17 523.973C625.77 523.724 625.321 523.6 624.823 523.6C624.326 523.6 623.877 523.724 623.477 523.973C623.077 524.213 622.761 524.556 622.53 525C622.308 525.444 622.197 525.951 622.197 526.52C622.197 527.089 622.308 527.596 622.53 528.04C622.761 528.476 623.077 528.818 623.477 529.067C623.877 529.307 624.326 529.427 624.823 529.427ZM631.187 527.933V530H630.507V520.107H631.187V527.08L635.387 523.04H636.24L633.387 525.853L636.534 530H635.68L632.88 526.293L631.187 527.933ZM638.391 524.587C638.595 524.071 638.911 523.676 639.337 523.4C639.773 523.116 640.302 522.973 640.924 522.973V523.667C640.88 523.658 640.822 523.653 640.751 523.653C640.022 523.653 639.449 523.893 639.031 524.373C638.622 524.853 638.417 525.52 638.417 526.373V530H637.737V523.04H638.391V524.587ZM646.343 529.573C646.183 529.733 645.978 529.853 645.729 529.933C645.489 530.013 645.236 530.053 644.969 530.053C644.391 530.053 643.943 529.884 643.623 529.547C643.311 529.209 643.156 528.742 643.156 528.147V523.653H641.956V523.067H643.156V521.507H643.836V523.067H645.929V523.653H643.836V528.08C643.836 528.524 643.938 528.867 644.143 529.107C644.356 529.338 644.658 529.453 645.049 529.453C645.458 529.453 645.8 529.324 646.076 529.067L646.343 529.573ZM648.204 521.36C648.053 521.36 647.924 521.307 647.817 521.2C647.711 521.093 647.657 520.964 647.657 520.813C647.657 520.662 647.711 520.533 647.817 520.427C647.924 520.311 648.053 520.253 648.204 520.253C648.364 520.253 648.497 520.307 648.604 520.413C648.711 520.511 648.764 520.636 648.764 520.787C648.764 520.947 648.711 521.084 648.604 521.2C648.497 521.307 648.364 521.36 648.204 521.36ZM646.751 532.64C646.475 532.64 646.217 532.6 645.977 532.52C645.728 532.44 645.524 532.324 645.364 532.173L645.644 531.653C645.902 531.911 646.253 532.04 646.697 532.04C647.079 532.04 647.368 531.92 647.564 531.68C647.768 531.44 647.871 531.093 647.871 530.64V523.04H648.564V530.68C648.564 531.284 648.404 531.76 648.084 532.107C647.764 532.462 647.319 532.64 646.751 532.64ZM652.959 520.653C652.559 520.653 652.253 520.773 652.039 521.013C651.835 521.244 651.733 521.587 651.733 522.04V523.067H653.839V523.653H651.746V530H651.066V523.653H649.866V523.067H651.066V521.987C651.066 521.391 651.226 520.92 651.546 520.573C651.875 520.227 652.328 520.053 652.906 520.053C653.164 520.053 653.413 520.093 653.653 520.173C653.893 520.244 654.093 520.356 654.253 520.507L653.986 521.04C653.711 520.782 653.368 520.653 652.959 520.653ZM658.408 530H657.688V521.293H655.422V520.667H658.408V530ZM668.879 530H662.439V529.493L666.372 525.573C666.888 525.067 667.235 524.631 667.412 524.267C667.599 523.893 667.692 523.516 667.692 523.133C667.692 522.547 667.488 522.084 667.079 521.747C666.679 521.409 666.106 521.24 665.359 521.24C664.203 521.24 663.319 521.604 662.706 522.333L662.186 521.92C662.541 521.493 662.99 521.169 663.532 520.947C664.083 520.716 664.71 520.6 665.412 520.6C666.328 520.6 667.057 520.822 667.599 521.267C668.141 521.702 668.412 522.307 668.412 523.08C668.412 523.56 668.306 524.018 668.092 524.453C667.888 524.889 667.492 525.396 666.906 525.973L663.506 529.36H668.879V530ZM676.883 530H670.443V529.493L674.376 525.573C674.892 525.067 675.238 524.631 675.416 524.267C675.603 523.893 675.696 523.516 675.696 523.133C675.696 522.547 675.492 522.084 675.083 521.747C674.683 521.409 674.11 521.24 673.363 521.24C672.207 521.24 671.323 521.604 670.71 522.333L670.19 521.92C670.545 521.493 670.994 521.169 671.536 520.947C672.087 520.716 672.714 520.6 673.416 520.6C674.332 520.6 675.061 520.822 675.603 521.267C676.145 521.702 676.416 522.307 676.416 523.08C676.416 523.56 676.31 524.018 676.096 524.453C675.892 524.889 675.496 525.396 674.91 525.973L671.51 529.36H676.883V530ZM683.14 525.12C683.798 525.28 684.309 525.56 684.673 525.96C685.038 526.36 685.22 526.853 685.22 527.44C685.22 528.249 684.9 528.889 684.26 529.36C683.629 529.831 682.762 530.067 681.66 530.067C680.558 530.067 679.691 529.836 679.06 529.373C678.429 528.902 678.113 528.258 678.113 527.44C678.113 526.853 678.291 526.36 678.647 525.96C679.002 525.56 679.513 525.28 680.18 525.12C679.629 524.96 679.202 524.698 678.9 524.333C678.598 523.969 678.447 523.529 678.447 523.013C678.447 522.267 678.736 521.68 679.313 521.253C679.9 520.818 680.682 520.6 681.66 520.6C682.638 520.6 683.42 520.818 684.007 521.253C684.593 521.689 684.887 522.276 684.887 523.013C684.887 523.529 684.736 523.969 684.433 524.333C684.131 524.698 683.7 524.96 683.14 525.12ZM681.66 521.187C680.896 521.187 680.291 521.351 679.847 521.68C679.402 522.009 679.18 522.458 679.18 523.027C679.18 523.587 679.398 524.031 679.833 524.36C680.269 524.68 680.878 524.84 681.66 524.84C682.433 524.84 683.042 524.68 683.487 524.36C683.931 524.031 684.153 523.587 684.153 523.027C684.153 522.458 683.927 522.009 683.473 521.68C683.029 521.351 682.425 521.187 681.66 521.187ZM681.66 529.467C682.54 529.467 683.229 529.284 683.727 528.92C684.233 528.556 684.487 528.062 684.487 527.44C684.487 526.818 684.233 526.324 683.727 525.96C683.229 525.596 682.54 525.413 681.66 525.413C680.78 525.413 680.091 525.596 679.593 525.96C679.105 526.324 678.86 526.818 678.86 527.44C678.86 528.062 679.105 528.556 679.593 528.92C680.091 529.284 680.78 529.467 681.66 529.467ZM692.584 520.6C693.766 520.6 694.82 520.849 695.744 521.347C696.677 521.836 697.406 522.529 697.931 523.427C698.455 524.316 698.717 525.338 698.717 526.493C698.717 527.24 698.629 527.88 698.451 528.413C698.282 528.947 698.042 529.356 697.731 529.64C697.42 529.916 697.06 530.053 696.651 530.053C696.251 530.053 695.926 529.942 695.677 529.72C695.429 529.498 695.291 529.191 695.264 528.8L695.251 528.227C695.002 528.796 694.624 529.244 694.117 529.573C693.62 529.893 693.046 530.053 692.397 530.053C691.784 530.053 691.224 529.907 690.717 529.613C690.22 529.32 689.824 528.911 689.531 528.387C689.246 527.853 689.104 527.253 689.104 526.587C689.104 525.92 689.246 525.324 689.531 524.8C689.824 524.276 690.22 523.867 690.717 523.573C691.224 523.28 691.784 523.133 692.397 523.133C693.037 523.133 693.602 523.289 694.091 523.6C694.589 523.911 694.962 524.342 695.211 524.893V523.2H695.864V528.453C695.864 528.809 695.94 529.071 696.091 529.24C696.251 529.409 696.464 529.493 696.731 529.493C697.166 529.493 697.513 529.231 697.771 528.707C698.037 528.182 698.171 527.449 698.171 526.507C698.171 525.44 697.931 524.498 697.451 523.68C696.98 522.862 696.322 522.231 695.477 521.787C694.633 521.333 693.669 521.107 692.584 521.107C691.491 521.107 690.517 521.338 689.664 521.8C688.811 522.262 688.144 522.911 687.664 523.747C687.193 524.582 686.957 525.538 686.957 526.613C686.957 527.689 687.193 528.644 687.664 529.48C688.135 530.316 688.793 530.964 689.637 531.427C690.482 531.898 691.446 532.133 692.531 532.133C692.949 532.133 693.384 532.084 693.837 531.987C694.291 531.889 694.7 531.742 695.064 531.547L695.264 532.04C694.882 532.244 694.446 532.396 693.957 532.493C693.469 532.6 692.993 532.653 692.531 532.653C691.34 532.653 690.277 532.396 689.344 531.88C688.411 531.373 687.682 530.662 687.157 529.747C686.642 528.831 686.384 527.787 686.384 526.613C686.384 525.44 686.646 524.4 687.171 523.493C687.695 522.578 688.424 521.867 689.357 521.36C690.3 520.853 691.375 520.6 692.584 520.6ZM692.491 529.467C693.006 529.467 693.473 529.347 693.891 529.107C694.309 528.867 694.633 528.529 694.864 528.093C695.104 527.658 695.224 527.156 695.224 526.587C695.224 526.027 695.104 525.529 694.864 525.093C694.633 524.658 694.309 524.32 693.891 524.08C693.473 523.84 693.006 523.72 692.491 523.72C691.966 523.72 691.5 523.84 691.091 524.08C690.682 524.32 690.357 524.658 690.117 525.093C689.886 525.529 689.771 526.027 689.771 526.587C689.771 527.147 689.886 527.644 690.117 528.08C690.357 528.516 690.682 528.858 691.091 529.107C691.509 529.347 691.975 529.467 692.491 529.467ZM703.727 522.973C704.554 522.973 705.207 523.227 705.687 523.733C706.176 524.24 706.42 524.969 706.42 525.92V530H705.727V526C705.727 525.218 705.54 524.627 705.167 524.227C704.802 523.818 704.282 523.613 703.607 523.613C702.851 523.613 702.251 523.858 701.807 524.347C701.362 524.827 701.14 525.476 701.14 526.293V530H700.447V523.04H701.114V524.587C701.327 524.089 701.66 523.698 702.114 523.413C702.576 523.12 703.114 522.973 703.727 522.973ZM710.596 522.973C711.432 522.973 712.067 523.196 712.503 523.64C712.947 524.084 713.17 524.733 713.17 525.587V530H712.53V528.693C712.325 529.12 712.018 529.453 711.61 529.693C711.201 529.933 710.712 530.053 710.143 530.053C709.405 530.053 708.823 529.871 708.396 529.507C707.97 529.142 707.756 528.662 707.756 528.067C707.756 527.489 707.952 527.022 708.343 526.667C708.743 526.311 709.374 526.133 710.236 526.133H712.49C712.49 525.822 712.481 525.591 712.463 525.44C712.445 524.836 712.276 524.378 711.956 524.067C711.636 523.747 711.165 523.587 710.543 523.587C710.098 523.587 709.676 523.667 709.276 523.827C708.876 523.978 708.538 524.191 708.263 524.467L707.956 523.96C708.285 523.649 708.681 523.409 709.143 523.24C709.605 523.062 710.09 522.973 710.596 522.973ZM710.25 529.507C710.801 529.507 711.267 529.373 711.65 529.107C712.032 528.84 712.312 528.458 712.49 527.96V526.627H710.276C709.636 526.627 709.165 526.756 708.863 527.013C708.57 527.262 708.423 527.6 708.423 528.027C708.423 528.48 708.583 528.84 708.903 529.107C709.232 529.373 709.681 529.507 710.25 529.507ZM717.597 530H716.903L713.93 523.04H714.65L717.263 529.2L719.89 523.04H720.57L717.597 530ZM727.294 526.667H721.64C721.658 527.209 721.787 527.693 722.027 528.12C722.267 528.538 722.592 528.862 723 529.093C723.418 529.324 723.885 529.44 724.4 529.44C724.827 529.44 725.223 529.36 725.587 529.2C725.952 529.031 726.258 528.787 726.507 528.467L726.894 528.907C726.6 529.28 726.236 529.564 725.8 529.76C725.365 529.956 724.894 530.053 724.387 530.053C723.729 530.053 723.138 529.902 722.614 529.6C722.098 529.298 721.694 528.88 721.4 528.347C721.107 527.804 720.96 527.191 720.96 526.507C720.96 525.831 721.098 525.227 721.374 524.693C721.649 524.151 722.027 523.729 722.507 523.427C722.996 523.124 723.543 522.973 724.147 522.973C724.743 522.973 725.28 523.124 725.76 523.427C726.24 523.72 726.618 524.133 726.894 524.667C727.169 525.191 727.307 525.791 727.307 526.467L727.294 526.667ZM724.147 523.573C723.685 523.573 723.267 523.684 722.894 523.907C722.529 524.129 722.236 524.436 722.014 524.827C721.792 525.218 721.667 525.662 721.64 526.16H726.667C726.632 525.662 726.503 525.218 726.28 524.827C726.058 524.436 725.76 524.129 725.387 523.907C725.014 523.684 724.6 523.573 724.147 523.573ZM729.61 524.587C729.814 524.071 730.13 523.676 730.556 523.4C730.992 523.116 731.521 522.973 732.143 522.973V523.667C732.098 523.658 732.041 523.653 731.97 523.653C731.241 523.653 730.667 523.893 730.25 524.373C729.841 524.853 729.636 525.52 729.636 526.373V530H728.956V523.04H729.61V524.587ZM733.323 530.053C733.163 530.053 733.025 530 732.91 529.893C732.794 529.778 732.737 529.636 732.737 529.467C732.737 529.298 732.794 529.16 732.91 529.053C733.025 528.938 733.163 528.88 733.323 528.88C733.483 528.88 733.621 528.938 733.737 529.053C733.852 529.16 733.91 529.298 733.91 529.467C733.91 529.636 733.852 529.778 733.737 529.893C733.621 530 733.483 530.053 733.323 530.053ZM738.512 530.053C737.872 530.053 737.294 529.902 736.779 529.6C736.272 529.298 735.872 528.88 735.579 528.347C735.294 527.804 735.152 527.191 735.152 526.507C735.152 525.822 735.294 525.213 735.579 524.68C735.872 524.138 736.272 523.72 736.779 523.427C737.294 523.124 737.872 522.973 738.512 522.973C739.054 522.973 739.543 523.084 739.979 523.307C740.423 523.529 740.779 523.849 741.045 524.267L740.525 524.64C740.294 524.293 740.005 524.036 739.659 523.867C739.312 523.689 738.93 523.6 738.512 523.6C738.005 523.6 737.547 523.724 737.139 523.973C736.739 524.213 736.423 524.556 736.192 525C735.961 525.436 735.845 525.938 735.845 526.507C735.845 527.084 735.961 527.596 736.192 528.04C736.423 528.476 736.739 528.818 737.139 529.067C737.547 529.307 738.005 529.427 738.512 529.427C738.93 529.427 739.312 529.342 739.659 529.173C740.014 528.996 740.303 528.733 740.525 528.387L741.045 528.76C740.77 529.178 740.41 529.498 739.965 529.72C739.53 529.942 739.045 530.053 738.512 530.053ZM745.257 530.053C744.626 530.053 744.057 529.902 743.55 529.6C743.053 529.298 742.657 528.88 742.364 528.347C742.079 527.804 741.937 527.191 741.937 526.507C741.937 525.831 742.079 525.227 742.364 524.693C742.657 524.151 743.053 523.729 743.55 523.427C744.057 523.124 744.626 522.973 745.257 522.973C745.888 522.973 746.453 523.124 746.95 523.427C747.457 523.729 747.853 524.151 748.137 524.693C748.43 525.227 748.577 525.831 748.577 526.507C748.577 527.191 748.43 527.804 748.137 528.347C747.853 528.88 747.457 529.298 746.95 529.6C746.453 529.902 745.888 530.053 745.257 530.053ZM745.257 529.427C745.755 529.427 746.204 529.307 746.604 529.067C747.004 528.818 747.319 528.471 747.55 528.027C747.781 527.582 747.897 527.076 747.897 526.507C747.897 525.938 747.781 525.436 747.55 525C747.319 524.556 747.004 524.213 746.604 523.973C746.204 523.724 745.755 523.6 745.257 523.6C744.759 523.6 744.31 523.724 743.91 523.973C743.51 524.213 743.195 524.556 742.964 525C742.741 525.436 742.63 525.938 742.63 526.507C742.63 527.076 742.741 527.582 742.964 528.027C743.195 528.471 743.51 528.818 743.91 529.067C744.31 529.307 744.759 529.427 745.257 529.427ZM758.356 522.973C759.174 522.973 759.814 523.227 760.276 523.733C760.747 524.24 760.983 524.969 760.983 525.92V530H760.303V526C760.303 525.227 760.125 524.636 759.769 524.227C759.414 523.818 758.911 523.613 758.263 523.613C757.525 523.613 756.938 523.858 756.503 524.347C756.076 524.827 755.862 525.476 755.862 526.293V530H755.182V526C755.182 525.218 755.005 524.627 754.649 524.227C754.303 523.818 753.805 523.613 753.156 523.613C752.418 523.613 751.836 523.853 751.409 524.333C750.983 524.813 750.769 525.467 750.769 526.293V530H750.076V523.04H750.743V524.56C750.956 524.062 751.28 523.676 751.716 523.4C752.16 523.116 752.68 522.973 753.276 522.973C753.88 522.973 754.391 523.124 754.809 523.427C755.236 523.729 755.529 524.164 755.689 524.733C755.903 524.191 756.24 523.764 756.702 523.453C757.174 523.133 757.725 522.973 758.356 522.973Z" fill="#939393"/>
</g>
<defs>
<clipPath id="clip0_16_261">
<rect width="595" height="842" fill="white" transform="matrix(0 1 -1 0 842 0)"/>
</clipPath>
</defs>
</svg>
