<svg width="842" height="595" viewBox="0 0 842 595" fill="none" xmlns="http://www.w3.org/2000/svg">
<g clip-path="url(#clip0_5_279)">
<rect width="595" height="842" transform="matrix(0 1 -1 0 842 0)" fill="#F0EBE5"/>
<path d="M76.9 325.5V314H133.8V325.5H112.1V384H98.7V325.5H76.9ZM199.168 384H185.768V354.4H152.868V384H139.468V314H152.868V342.5H185.768V314H199.168V384ZM224.057 368.1L217.657 384H203.957L233.757 314H246.957L276.857 384H262.857L256.457 368.1H224.057ZM240.357 327.9L228.357 357.3H252.157L240.357 327.9ZM341.587 384H330.587L295.087 337.9V384H281.887V314H292.887L328.387 360V314H341.587V384ZM369.103 366.2V384H355.803V314H369.103V349.1L400.903 314H415.803L387.903 345.3L417.503 384H401.903L379.203 355.1L369.103 366.2ZM471.9 384H458.5V359.2L432.7 314H446.8L465.8 347L484.8 314H497.9L471.9 359.3V384ZM531.871 385.1C525.071 385.1 518.938 383.533 513.471 380.4C508.004 377.267 503.704 372.967 500.571 367.5C497.438 361.967 495.871 355.8 495.871 349C495.871 342.2 497.438 336.067 500.571 330.6C503.704 325.067 508.004 320.733 513.471 317.6C518.938 314.467 525.071 312.9 531.871 312.9C538.671 312.9 544.804 314.467 550.271 317.6C555.804 320.733 560.138 325.033 563.271 330.5C566.404 335.967 567.971 342.133 567.971 349C567.971 355.867 566.404 362.033 563.271 367.5C560.138 372.967 555.804 377.267 550.271 380.4C544.804 383.533 538.671 385.1 531.871 385.1ZM531.871 373C536.138 373 539.971 372 543.371 370C546.838 367.933 549.538 365.1 551.471 361.5C553.471 357.833 554.471 353.667 554.471 349C554.471 344.333 553.471 340.167 551.471 336.5C549.538 332.833 546.838 330 543.371 328C539.971 325.933 536.138 324.9 531.871 324.9C527.671 324.9 523.838 325.933 520.371 328C516.971 330 514.271 332.833 512.271 336.5C510.338 340.167 509.371 344.333 509.371 349C509.371 353.667 510.338 357.833 512.271 361.5C514.271 365.1 516.971 367.933 520.371 370C523.771 372 527.604 373 531.871 373ZM606.251 385.1C596.918 385.1 589.651 382.367 584.451 376.9C579.318 371.433 576.751 363.6 576.751 353.4V314H590.151V352.9C590.151 366.3 595.551 373 606.351 373C617.085 373 622.451 366.3 622.451 352.9V314H635.651V353.4C635.651 363.6 633.051 371.433 627.851 376.9C622.718 382.367 615.518 385.1 606.251 385.1Z" fill="#FCB600"/>
<path opacity="0.8" d="M104.2 458.2C111.467 458.2 117.033 460.067 120.9 463.8C124.767 467.467 126.7 472.967 126.7 480.3V512H116.4V504.1C115 506.833 112.867 508.933 110 510.4C107.2 511.867 103.833 512.6 99.9 512.6C94.1667 512.6 89.6333 511.167 86.3 508.3C82.9667 505.367 81.3 501.567 81.3 496.9C81.3 492.167 82.9667 488.4 86.3 485.6C89.6333 482.8 94.8333 481.4 101.9 481.4H115.7C115.7 479.2 115.433 477.4 114.9 476C113.767 470.267 109.767 467.4 102.9 467.4C99.9 467.4 97 467.9 94.2 468.9C91.4667 469.9 89.1 471.3 87.1 473.1L83 465C85.6667 462.867 88.8667 461.2 92.6 460C96.4 458.8 100.267 458.2 104.2 458.2ZM102.5 504.7C105.7 504.7 108.433 503.933 110.7 502.4C112.967 500.867 114.633 498.633 115.7 495.7V488.4H103C95.6667 488.4 92 491.067 92 496.4C92 498.933 92.9333 500.967 94.8 502.5C96.6667 503.967 99.2333 504.7 102.5 504.7ZM166.35 458.2C172.683 458.2 177.716 460.167 181.45 464.1C185.25 467.967 187.15 473.7 187.15 481.3V512H176.25V483C176.25 478.067 175.15 474.367 172.95 471.9C170.816 469.433 167.716 468.2 163.65 468.2C159.116 468.2 155.516 469.667 152.85 472.6C150.183 475.467 148.85 479.567 148.85 484.9V512H137.85V458.8H148.35V467.3C150.216 464.367 152.683 462.133 155.75 460.6C158.883 459 162.416 458.2 166.35 458.2ZM217.667 458.2C224.933 458.2 230.5 460.067 234.367 463.8C238.233 467.467 240.167 472.967 240.167 480.3V512H229.867V504.1C228.467 506.833 226.333 508.933 223.467 510.4C220.667 511.867 217.3 512.6 213.367 512.6C207.633 512.6 203.1 511.167 199.767 508.3C196.433 505.367 194.767 501.567 194.767 496.9C194.767 492.167 196.433 488.4 199.767 485.6C203.1 482.8 208.3 481.4 215.367 481.4H229.167C229.167 479.2 228.9 477.4 228.367 476C227.233 470.267 223.233 467.4 216.367 467.4C213.367 467.4 210.467 467.9 207.667 468.9C204.933 469.9 202.567 471.3 200.567 473.1L196.467 465C199.133 462.867 202.333 461.2 206.067 460C209.867 458.8 213.733 458.2 217.667 458.2ZM215.967 504.7C219.167 504.7 221.9 503.933 224.167 502.4C226.433 500.867 228.1 498.633 229.167 495.7V488.4H216.467C209.133 488.4 205.467 491.067 205.467 496.4C205.467 498.933 206.4 500.967 208.267 502.5C210.133 503.967 212.7 504.7 215.967 504.7ZM262.816 437.8V512H251.816V437.8H262.816ZM301.575 516.8C299.375 522.4 296.741 526.333 293.675 528.6C290.608 530.867 286.908 532 282.575 532C280.041 532 277.608 531.567 275.275 530.7C272.941 529.9 271.008 528.733 269.475 527.2L273.675 519C274.808 520.2 276.108 521.1 277.575 521.7C279.108 522.367 280.675 522.7 282.275 522.7C284.741 522.7 286.708 521.933 288.175 520.4C289.641 518.867 291.208 516.133 292.875 512.2L270.575 458.8H281.975L298.475 499.2L314.975 458.8H325.575L301.575 516.8ZM370.082 512H326.782V505L355.482 467.8H327.482V458.8H369.382V465.9L340.682 503H370.082V512ZM384.858 449.3C382.724 449.3 380.958 448.667 379.558 447.4C378.224 446.067 377.558 444.4 377.558 442.4C377.558 440.467 378.224 438.833 379.558 437.5C380.958 436.167 382.724 435.5 384.858 435.5C386.924 435.5 388.624 436.133 389.958 437.4C391.291 438.667 391.958 440.267 391.958 442.2C391.958 444.267 391.291 445.967 389.958 447.3C388.624 448.633 386.924 449.3 384.858 449.3ZM390.258 458.8V512H379.258V458.8H390.258ZM432.395 458.2C438.728 458.2 443.761 460.167 447.495 464.1C451.295 467.967 453.195 473.7 453.195 481.3V512H442.295V483C442.295 478.067 441.195 474.367 438.995 471.9C436.861 469.433 433.761 468.2 429.695 468.2C425.161 468.2 421.561 469.667 418.895 472.6C416.228 475.467 414.895 479.567 414.895 484.9V512H403.895V458.8H414.395V467.3C416.261 464.367 418.728 462.133 421.795 460.6C424.928 459 428.461 458.2 432.395 458.2ZM516.233 504.3C516.233 522.767 507.267 532 489.333 532C484.533 532 480 531.333 475.733 530C471.467 528.667 467.967 526.767 465.233 524.3L469.833 516C472.1 518.067 474.9 519.7 478.233 520.9C481.567 522.1 485 522.7 488.533 522.7C494.267 522.7 498.467 521.3 501.133 518.5C503.867 515.767 505.233 511.533 505.233 505.8V500.6C503.367 503.467 500.867 505.7 497.733 507.3C494.667 508.9 491.233 509.7 487.433 509.7C482.7 509.7 478.4 508.633 474.533 506.5C470.733 504.3 467.7 501.233 465.433 497.3C463.233 493.367 462.133 488.9 462.133 483.9C462.133 478.9 463.233 474.467 465.433 470.6C467.7 466.667 470.733 463.633 474.533 461.5C478.4 459.3 482.7 458.2 487.433 458.2C491.433 458.2 495.033 459.033 498.233 460.7C501.433 462.367 503.967 464.767 505.833 467.9V458.8H516.233V504.3ZM489.333 500.1C494 500.1 497.833 498.6 500.833 495.6C503.9 492.6 505.433 488.7 505.433 483.9C505.433 479.1 503.9 475.2 500.833 472.2C497.833 469.2 494 467.7 489.333 467.7C484.733 467.7 480.9 469.2 477.833 472.2C474.833 475.2 473.333 479.1 473.333 483.9C473.333 488.633 474.833 492.533 477.833 495.6C480.9 498.6 484.733 500.1 489.333 500.1Z" fill="#CACACA"/>
<path opacity="0.8" d="M113.4 202.2C118.067 202.2 122.267 203.333 126 205.6C129.8 207.867 132.8 211.067 135 215.2C137.2 219.333 138.3 224.067 138.3 229.4C138.3 234.733 137.2 239.467 135 243.6C132.8 247.733 129.8 250.933 126 253.2C122.267 255.467 118.067 256.6 113.4 256.6C109.667 256.6 106.3 255.833 103.3 254.3C100.367 252.767 97.9333 250.533 96 247.6V275.4H85V202.8H95.5V211.7C97.3667 208.633 99.8333 206.3 102.9 204.7C105.967 203.033 109.467 202.2 113.4 202.2ZM111.6 247.1C114.533 247.1 117.2 246.367 119.6 244.9C122 243.433 123.867 241.367 125.2 238.7C126.6 236.033 127.3 232.933 127.3 229.4C127.3 225.867 126.6 222.767 125.2 220.1C123.867 217.433 122 215.367 119.6 213.9C117.2 212.433 114.533 211.7 111.6 211.7C108.6 211.7 105.9 212.433 103.5 213.9C101.167 215.367 99.3 217.433 97.9 220.1C96.5667 222.767 95.9 225.867 95.9 229.4C95.9 232.933 96.5667 236.033 97.9 238.7C99.3 241.367 101.167 243.433 103.5 244.9C105.9 246.367 108.6 247.1 111.6 247.1ZM159.018 181.8V256H148.018V181.8H159.018ZM192.354 202.2C199.621 202.2 205.188 204.067 209.054 207.8C212.921 211.467 214.854 216.967 214.854 224.3V256H204.554V248.1C203.154 250.833 201.021 252.933 198.154 254.4C195.354 255.867 191.988 256.6 188.054 256.6C182.321 256.6 177.788 255.167 174.454 252.3C171.121 249.367 169.454 245.567 169.454 240.9C169.454 236.167 171.121 232.4 174.454 229.6C177.788 226.8 182.988 225.4 190.054 225.4H203.854C203.854 223.2 203.588 221.4 203.054 220C201.921 214.267 197.921 211.4 191.054 211.4C188.054 211.4 185.154 211.9 182.354 212.9C179.621 213.9 177.254 215.3 175.254 217.1L171.154 209C173.821 206.867 177.021 205.2 180.754 204C184.554 202.8 188.421 202.2 192.354 202.2ZM190.654 248.7C193.854 248.7 196.588 247.933 198.854 246.4C201.121 244.867 202.788 242.633 203.854 239.7V232.4H191.154C183.821 232.4 180.154 235.067 180.154 240.4C180.154 242.933 181.088 244.967 182.954 246.5C184.821 247.967 187.388 248.7 190.654 248.7ZM254.504 202.2C260.837 202.2 265.871 204.167 269.604 208.1C273.404 211.967 275.304 217.7 275.304 225.3V256H264.404V227C264.404 222.067 263.304 218.367 261.104 215.9C258.971 213.433 255.871 212.2 251.804 212.2C247.271 212.2 243.671 213.667 241.004 216.6C238.337 219.467 237.004 223.567 237.004 228.9V256H226.004V202.8H236.504V211.3C238.371 208.367 240.837 206.133 243.904 204.6C247.037 203 250.571 202.2 254.504 202.2ZM316.643 202.2C322.976 202.2 328.009 204.167 331.743 208.1C335.543 211.967 337.443 217.7 337.443 225.3V256H326.543V227C326.543 222.067 325.443 218.367 323.243 215.9C321.109 213.433 318.009 212.2 313.943 212.2C309.409 212.2 305.809 213.667 303.143 216.6C300.476 219.467 299.143 223.567 299.143 228.9V256H288.143V202.8H298.643V211.3C300.509 208.367 302.976 206.133 306.043 204.6C309.176 203 312.709 202.2 316.643 202.2ZM356.381 193.3C354.248 193.3 352.481 192.667 351.081 191.4C349.748 190.067 349.081 188.4 349.081 186.4C349.081 184.467 349.748 182.833 351.081 181.5C352.481 180.167 354.248 179.5 356.381 179.5C358.448 179.5 360.148 180.133 361.481 181.4C362.815 182.667 363.481 184.267 363.481 186.2C363.481 188.267 362.815 189.967 361.481 191.3C360.148 192.633 358.448 193.3 356.381 193.3ZM361.781 202.8V256H350.781V202.8H361.781ZM403.918 202.2C410.251 202.2 415.285 204.167 419.018 208.1C422.818 211.967 424.718 217.7 424.718 225.3V256H413.818V227C413.818 222.067 412.718 218.367 410.518 215.9C408.385 213.433 405.285 212.2 401.218 212.2C396.685 212.2 393.085 213.667 390.418 216.6C387.751 219.467 386.418 223.567 386.418 228.9V256H375.418V202.8H385.918V211.3C387.785 208.367 390.251 206.133 393.318 204.6C396.451 203 399.985 202.2 403.918 202.2ZM487.757 248.3C487.757 266.767 478.79 276 460.857 276C456.057 276 451.523 275.333 447.257 274C442.99 272.667 439.49 270.767 436.757 268.3L441.357 260C443.623 262.067 446.423 263.7 449.757 264.9C453.09 266.1 456.523 266.7 460.057 266.7C465.79 266.7 469.99 265.3 472.657 262.5C475.39 259.767 476.757 255.533 476.757 249.8V244.6C474.89 247.467 472.39 249.7 469.257 251.3C466.19 252.9 462.757 253.7 458.957 253.7C454.223 253.7 449.923 252.633 446.057 250.5C442.257 248.3 439.223 245.233 436.957 241.3C434.757 237.367 433.657 232.9 433.657 227.9C433.657 222.9 434.757 218.467 436.957 214.6C439.223 210.667 442.257 207.633 446.057 205.5C449.923 203.3 454.223 202.2 458.957 202.2C462.957 202.2 466.557 203.033 469.757 204.7C472.957 206.367 475.49 208.767 477.357 211.9V202.8H487.757V248.3ZM460.857 244.1C465.523 244.1 469.357 242.6 472.357 239.6C475.423 236.6 476.957 232.7 476.957 227.9C476.957 223.1 475.423 219.2 472.357 216.2C469.357 213.2 465.523 211.7 460.857 211.7C456.257 211.7 452.423 213.2 449.357 216.2C446.357 219.2 444.857 223.1 444.857 227.9C444.857 232.633 446.357 236.533 449.357 239.6C452.423 242.6 456.257 244.1 460.857 244.1Z" fill="#CACACA"/>
<path opacity="0.8" d="M147.2 79L124.4 119.8H119.2L96.5 79.6V128H85.8V58H95.2L122 105.7L148.5 58H157.8L157.9 128H147.3L147.2 79ZM191.915 74.2C199.182 74.2 204.748 76.0667 208.615 79.8C212.482 83.4667 214.415 88.9667 214.415 96.3V128H204.115V120.1C202.715 122.833 200.582 124.933 197.715 126.4C194.915 127.867 191.548 128.6 187.615 128.6C181.882 128.6 177.348 127.167 174.015 124.3C170.682 121.367 169.015 117.567 169.015 112.9C169.015 108.167 170.682 104.4 174.015 101.6C177.348 98.8 182.548 97.4 189.615 97.4H203.415C203.415 95.2 203.148 93.4 202.615 92C201.482 86.2667 197.482 83.4 190.615 83.4C187.615 83.4 184.715 83.9 181.915 84.9C179.182 85.9 176.815 87.3 174.815 89.1L170.715 81C173.382 78.8667 176.582 77.2 180.315 76C184.115 74.8 187.982 74.2 191.915 74.2ZM190.215 120.7C193.415 120.7 196.148 119.933 198.415 118.4C200.682 116.867 202.348 114.633 203.415 111.7V104.4H190.715C183.382 104.4 179.715 107.067 179.715 112.4C179.715 114.933 180.648 116.967 182.515 118.5C184.382 119.967 186.948 120.7 190.215 120.7ZM238.586 83.7C240.319 80.5667 242.719 78.2 245.786 76.6C248.853 75 252.519 74.2 256.786 74.2V84.9C255.453 84.7667 254.586 84.7 254.186 84.7C249.519 84.7 245.819 86.2 243.086 89.2C240.419 92.1333 239.086 96.3667 239.086 101.9V128H228.086V74.8H238.586V83.7ZM276.703 113.6V128H265.703V53.8H276.703V99.9L302.303 74.8H315.503L294.103 97L317.503 128H304.103L286.103 104.2L276.703 113.6ZM368.777 101.4C368.711 102.4 368.644 103.433 368.577 104.5H328.477C329.011 109.033 330.811 112.633 333.877 115.3C336.944 117.967 340.811 119.3 345.477 119.3C351.211 119.3 355.877 117.3 359.477 113.3L365.377 120C360.644 125.733 353.911 128.6 345.177 128.6C339.711 128.6 334.877 127.433 330.677 125.1C326.477 122.767 323.211 119.533 320.877 115.4C318.544 111.267 317.377 106.6 317.377 101.4C317.377 96.2 318.511 91.5333 320.777 87.4C323.044 83.2667 326.144 80.0333 330.077 77.7C334.011 75.3667 338.444 74.2 343.377 74.2C348.111 74.2 352.411 75.3333 356.277 77.6C360.144 79.8 363.177 82.9667 365.377 87.1C367.644 91.2333 368.777 96 368.777 101.4ZM343.377 83C339.311 83 335.877 84.3333 333.077 87C330.344 89.6667 328.777 93.1667 328.377 97.5H358.477C358.011 93.1667 356.377 89.6667 353.577 87C350.844 84.3333 347.444 83 343.377 83ZM408.179 125.2C406.846 126.333 405.146 127.2 403.079 127.8C401.079 128.333 398.979 128.6 396.779 128.6C391.379 128.6 387.212 127.133 384.279 124.2C381.346 121.2 379.879 116.9 379.879 111.3V84.6H371.579V75.6H379.879V63.1H390.879V75.6H404.779V84.6H390.879V111C390.879 113.667 391.512 115.733 392.779 117.2C394.112 118.667 395.946 119.4 398.279 119.4C400.946 119.4 403.179 118.6 404.979 117L408.179 125.2ZM421.86 65.3C419.726 65.3 417.96 64.6667 416.56 63.4C415.226 62.0667 414.56 60.4 414.56 58.4C414.56 56.4667 415.226 54.8333 416.56 53.5C417.96 52.1667 419.726 51.5 421.86 51.5C423.926 51.5 425.626 52.1333 426.96 53.4C428.293 54.6667 428.96 56.2667 428.96 58.2C428.96 60.2667 428.293 61.9667 426.96 63.3C425.626 64.6333 423.926 65.3 421.86 65.3ZM427.26 74.8V128H416.26V74.8H427.26ZM469.396 74.2C475.73 74.2 480.763 76.1667 484.496 80.1C488.296 83.9667 490.196 89.7 490.196 97.3V128H479.296V99C479.296 94.0667 478.196 90.3667 475.996 87.9C473.863 85.4333 470.763 84.2 466.696 84.2C462.163 84.2 458.563 85.6667 455.896 88.6C453.23 91.4667 451.896 95.5667 451.896 100.9V128H440.896V74.8H451.396V83.3C453.263 80.3667 455.73 78.1333 458.796 76.6C461.93 75 465.463 74.2 469.396 74.2ZM553.235 120.3C553.235 138.767 544.268 148 526.335 148C521.535 148 517.002 147.333 512.735 146C508.468 144.667 504.968 142.767 502.235 140.3L506.835 132C509.102 134.067 511.902 135.7 515.235 136.9C518.568 138.1 522.002 138.7 525.535 138.7C531.268 138.7 535.468 137.3 538.135 134.5C540.868 131.767 542.235 127.533 542.235 121.8V116.6C540.368 119.467 537.868 121.7 534.735 123.3C531.668 124.9 528.235 125.7 524.435 125.7C519.702 125.7 515.402 124.633 511.535 122.5C507.735 120.3 504.702 117.233 502.435 113.3C500.235 109.367 499.135 104.9 499.135 99.9C499.135 94.9 500.235 90.4667 502.435 86.6C504.702 82.6667 507.735 79.6333 511.535 77.5C515.402 75.3 519.702 74.2 524.435 74.2C528.435 74.2 532.035 75.0333 535.235 76.7C538.435 78.3667 540.968 80.7667 542.835 83.9V74.8H553.235V120.3ZM526.335 116.1C531.002 116.1 534.835 114.6 537.835 111.6C540.902 108.6 542.435 104.7 542.435 99.9C542.435 95.1 540.902 91.2 537.835 88.2C534.835 85.2 531.002 83.7 526.335 83.7C521.735 83.7 517.902 85.2 514.835 88.2C511.835 91.2 510.335 95.1 510.335 99.9C510.335 104.633 511.835 108.533 514.835 111.6C517.902 114.6 521.735 116.1 526.335 116.1Z" fill="#D2D1D0"/>
</g>
<defs>
<clipPath id="clip0_5_279">
<rect width="595" height="842" fill="white" transform="matrix(0 1 -1 0 842 0)"/>
</clipPath>
</defs>
</svg>
